<?xml version="1.0" encoding="UTF-8" standalone="no"?>
<!-- Created with Inkscape (http://www.inkscape.org/) -->

<svg
   width="210mm"
   height="297mm"
   viewBox="0 0 210 297"
   version="1.1"
   id="svg5"
   inkscape:version="1.2 (dc2aedaf03, 2022-05-15)"
   sodipodi:docname="mushroom_16mm.svg"
   xmlns:inkscape="http://www.inkscape.org/namespaces/inkscape"
   xmlns:sodipodi="http://sodipodi.sourceforge.net/DTD/sodipodi-0.dtd"
   xmlns:xlink="http://www.w3.org/1999/xlink"
   xmlns="http://www.w3.org/2000/svg"
   xmlns:svg="http://www.w3.org/2000/svg">
  <sodipodi:namedview
     id="namedview7"
     pagecolor="#ffffff"
     bordercolor="#666666"
     borderopacity="1.0"
     inkscape:showpageshadow="2"
     inkscape:pageopacity="0.0"
     inkscape:pagecheckerboard="0"
     inkscape:deskcolor="#d1d1d1"
     inkscape:document-units="mm"
     showgrid="false"
     inkscape:zoom="11.313708"
     inkscape:cx="355.32116"
     inkscape:cy="43.487067"
     inkscape:window-width="3200"
     inkscape:window-height="1671"
     inkscape:window-x="-8"
     inkscape:window-y="-8"
     inkscape:window-maximized="1"
     inkscape:current-layer="layer1"
     showguides="true">
    <inkscape:grid
       type="xygrid"
       id="grid2124" />
  </sodipodi:namedview>
  <defs
     id="defs2" />
  <g
     inkscape:label="Ebene 1"
     inkscape:groupmode="layer"
     id="layer1">
    <circle
       style="fill:#afc6e9;fill-rule:evenodd;stroke-width:0.2;stroke-dasharray:0.799999, 0.2;paint-order:fill markers stroke"
       id="path186"
       cx="101.71274"
       cy="87.029205"
       r="86.5" />
    <circle
       style="fill:#cccccc;fill-rule:evenodd;stroke-width:0.2;stroke-dasharray:0.799999, 0.2;paint-order:fill markers stroke"
       id="path186-0"
       cx="101.71274"
       cy="87.029205"
       r="84.5" />
    <circle
       style="fill:#ffffff;fill-rule:evenodd;stroke-width:0.2;stroke-dasharray:0.799999, 0.2;paint-order:fill markers stroke"
       id="path186-0-8"
       cx="101.71274"
       cy="87.029205"
       r="68.5" />
    <rect
       style="fill:#d40000;fill-rule:evenodd;stroke-width:0.98775;stroke-dasharray:3.95098, 0.98775;paint-order:fill markers stroke"
       id="rect6635"
       width="55"
       height="2"
       x="74.212738"
       y="24.317028" />
    <rect
       style="fill:#d40000;fill-rule:evenodd;stroke-width:1.19127;stroke-dasharray:4.76505, 1.19127;paint-order:fill markers stroke"
       id="rect6635-6"
       width="10"
       height="16"
       x="96.712738"
       y="2.5292053" />
    <circle
       style="fill:#000000;fill-rule:evenodd;stroke:none;stroke-width:0.0183376;paint-order:fill markers stroke"
       id="path2313"
       cx="70.194466"
       cy="1.2743249"
       r="0.050000001" />
    <use
       x="0"
       y="0"
       xlink:href="#path2313"
       id="use2681"
       transform="translate(22.431762,17.839897)" />
    <use
       x="0"
       y="0"
       xlink:href="#path2313"
       id="use2705"
       transform="translate(22.763361,17.674639)" />
    <use
       x="0"
       y="0"
       xlink:href="#path2313"
       id="use2707"
       transform="translate(23.077824,17.46338)" />
    <use
       x="0"
       y="0"
       xlink:href="#path2313"
       id="use2739"
       transform="translate(23.24491,17.079736)" />
    <use
       x="0"
       y="0"
       xlink:href="#path2313"
       id="use2741"
       transform="translate(23.434626,16.598112)" />
    <use
       x="0"
       y="0"
       xlink:href="#path2313"
       id="use2743"
       transform="translate(23.613578,16.110712)" />
    <use
       x="0"
       y="0"
       xlink:href="#path2313"
       id="use2745"
       transform="translate(23.912381,14.286054)" />
    <use
       x="0"
       y="0"
       xlink:href="#path2313"
       id="use2747"
       transform="translate(23.896539,13.658789)" />
    <use
       x="0"
       y="0"
       xlink:href="#path2313"
       id="use2749"
       transform="translate(23.88637,13.156547)" />
    <use
       x="0"
       y="0"
       xlink:href="#path2313"
       id="use2751"
       transform="translate(23.848919,12.684464)" />
    <use
       x="0"
       y="0"
       xlink:href="#path2313"
       id="use2753"
       transform="translate(23.802987,12.221538)" />
    <use
       x="0"
       y="0"
       xlink:href="#path2313"
       id="use3543"
       transform="translate(23.72912,11.740247)" />
    <use
       x="0"
       y="0"
       xlink:href="#path2313"
       id="use3545"
       transform="translate(23.676195,11.23136)" />
    <use
       x="0"
       y="0"
       xlink:href="#path2313"
       id="use3547"
       transform="translate(23.555669,10.738737)" />
    <use
       x="0"
       y="0"
       xlink:href="#path2313"
       id="use3549"
       transform="translate(23.393204,10.222486)" />
    <use
       x="0"
       y="0"
       xlink:href="#path2313"
       id="use3551"
       transform="translate(23.251726,9.7144163)" />
    <use
       x="0"
       y="0"
       xlink:href="#path2313"
       id="use3553"
       transform="translate(23.101404,9.2030716)" />
    <use
       x="0"
       y="0"
       xlink:href="#path2313"
       id="use3555"
       transform="translate(22.982683,8.7069188)" />
    <use
       x="0"
       y="0"
       xlink:href="#path2313"
       id="use3557"
       transform="translate(22.889139,8.2113501)" />
    <use
       x="0"
       y="0"
       xlink:href="#path2313"
       id="use3961"
       transform="translate(22.834604,7.6983344)" />
    <use
       x="0"
       y="0"
       xlink:href="#path2313"
       id="use4366"
       transform="translate(22.794283,7.1870587)" />
    <use
       x="0"
       y="0"
       xlink:href="#path2313"
       id="use4368"
       transform="translate(22.780626,6.6854889)" />
    <use
       x="0"
       y="0"
       xlink:href="#path2313"
       id="use4370"
       transform="translate(22.782236,6.1823822)" />
    <use
       x="0"
       y="0"
       xlink:href="#path2313"
       id="use4372"
       transform="translate(22.808924,5.6758426)" />
    <use
       x="0"
       y="0"
       xlink:href="#path2313"
       id="use4781"
       transform="translate(22.902452,5.1745736)" />
    <use
       x="0"
       y="0"
       xlink:href="#path2313"
       id="use4783"
       transform="translate(23.047975,4.6946633)" />
    <use
       x="0"
       y="0"
       xlink:href="#path2313"
       id="use5194"
       transform="translate(23.277697,4.2384912)" />
    <use
       x="0"
       y="0"
       xlink:href="#path2313"
       id="use5196"
       transform="translate(23.538553,3.8086854)" />
    <use
       x="0"
       y="0"
       xlink:href="#path2313"
       id="use5609"
       transform="translate(23.818453,3.4036294)" />
    <use
       x="0"
       y="0"
       xlink:href="#path2313"
       id="use5611"
       transform="translate(24.153772,3.0478662)" />
    <use
       x="0"
       y="0"
       xlink:href="#path2313"
       id="use5613"
       transform="translate(24.516985,2.7056631)" />
    <use
       x="0"
       y="0"
       xlink:href="#path2313"
       id="use6029"
       transform="translate(24.910311,2.4061013)" />
    <use
       x="0"
       y="0"
       xlink:href="#path2313"
       id="use6031"
       transform="translate(25.334505,2.1515864)" />
    <use
       x="0"
       y="0"
       xlink:href="#path2313"
       id="use6033"
       transform="translate(25.778955,1.9292146)" />
    <use
       x="0"
       y="0"
       xlink:href="#path2313"
       id="use6452"
       transform="translate(26.260942,1.7845896)" />
    <use
       x="0"
       y="0"
       xlink:href="#path2313"
       id="use6454"
       transform="translate(26.771498,1.6170977)" />
    <use
       x="0"
       y="0"
       xlink:href="#path2313"
       id="use6456"
       transform="translate(27.318263,1.4907369)" />
    <use
       x="0"
       y="0"
       xlink:href="#path2313"
       id="use6458"
       transform="translate(27.799835,1.4079223)" />
    <use
       x="0"
       y="0"
       xlink:href="#path2313"
       id="use6460"
       transform="translate(28.322322,1.3582022)" />
    <use
       x="0"
       y="0"
       xlink:href="#path2313"
       id="use6462"
       transform="translate(28.866541,1.3260792)" />
    <use
       x="0"
       y="0"
       xlink:href="#path2313"
       id="use6887"
       transform="translate(29.413673,1.2862333)" />
    <use
       x="0"
       y="0"
       xlink:href="#path2313"
       id="use6889"
       transform="translate(29.935228,1.2634192)" />
    <use
       x="0"
       y="0"
       xlink:href="#path2313"
       id="use6891"
       transform="translate(30.476902,1.2534817)" />
    <use
       x="0"
       y="0"
       xlink:href="#path2313"
       id="use6893"
       transform="translate(31.09167,1.2322662)" />
    <use
       x="0"
       y="0"
       xlink:href="#path2313"
       id="use7863"
       transform="translate(23.753252,15.566574)" />
    <use
       x="0"
       y="0"
       xlink:href="#path2313"
       id="use7865"
       transform="translate(23.849545,14.920309)" />
    <use
       x="0"
       y="0"
       xlink:href="#path2313"
       id="use8425"
       transform="translate(22.05497,17.778054)" />
    <use
       x="0"
       y="0"
       xlink:href="#path2313"
       id="use8488"
       transform="translate(21.645422,17.532841)" />
    <use
       x="0"
       y="0"
       xlink:href="#path2313"
       id="use8490"
       transform="translate(21.324524,17.19602)" />
    <use
       x="0"
       y="0"
       xlink:href="#path2313"
       id="use8774"
       transform="translate(21.046267,16.793238)" />
    <use
       x="0"
       y="0"
       xlink:href="#path2313"
       id="use9342"
       transform="translate(20.8907,16.42569)" />
    <use
       x="0"
       y="0"
       xlink:href="#path2313"
       id="use9344"
       transform="translate(20.73514,15.995428)" />
    <use
       x="0"
       y="0"
       xlink:href="#path2313"
       id="use9904"
       transform="translate(20.638788,15.511607)" />
    <use
       x="0"
       y="0"
       xlink:href="#path2313"
       id="use9906"
       transform="translate(20.532018,15.044443)" />
    <use
       x="0"
       y="0"
       xlink:href="#path2313"
       id="use9908"
       transform="translate(20.451537,14.490583)" />
    <use
       x="0"
       y="0"
       xlink:href="#path2313"
       id="use9910"
       transform="translate(20.387394,13.878556)" />
    <use
       x="0"
       y="0"
       xlink:href="#path2313"
       id="use9912"
       transform="translate(20.379413,13.245254)" />
    <use
       x="0"
       y="0"
       xlink:href="#path2313"
       id="use9914"
       transform="translate(20.414791,12.625283)" />
    <use
       x="0"
       y="0"
       xlink:href="#path2313"
       id="use9916"
       transform="translate(20.494399,12.004036)" />
    <use
       x="0"
       y="0"
       xlink:href="#path2313"
       id="use9918"
       transform="translate(20.610092,11.347467)" />
    <use
       x="0"
       y="0"
       xlink:href="#path2313"
       id="use10207"
       transform="translate(20.774948,10.827704)" />
    <use
       x="0"
       y="0"
       xlink:href="#path2313"
       id="use10209"
       transform="translate(20.925278,10.316359)" />
    <use
       x="0"
       y="0"
       xlink:href="#path2313"
       id="use10211"
       transform="translate(21.043999,9.8202063)" />
    <use
       x="0"
       y="0"
       xlink:href="#path2313"
       id="use10213"
       transform="translate(21.159219,9.3151576)" />
    <use
       x="0"
       y="0"
       xlink:href="#path2313"
       id="use10215"
       transform="translate(21.192079,8.8116208)" />
    <use
       x="0"
       y="0"
       xlink:href="#path2313"
       id="use10217"
       transform="translate(21.232393,8.3003451)" />
    <use
       x="0"
       y="0"
       xlink:href="#path2313"
       id="use10219"
       transform="translate(21.246057,7.7987765)" />
    <use
       x="0"
       y="0"
       xlink:href="#path2313"
       id="use10221"
       transform="translate(21.244447,7.2956687)" />
    <use
       x="0"
       y="0"
       xlink:href="#path2313"
       id="use10223"
       transform="translate(21.21776,6.78913)" />
    <use
       x="0"
       y="0"
       xlink:href="#path2313"
       id="use10225"
       transform="translate(21.124223,6.2878613)" />
    <use
       x="0"
       y="0"
       xlink:href="#path2313"
       id="use10227"
       transform="translate(20.978707,5.8079512)" />
    <use
       x="0"
       y="0"
       xlink:href="#path2313"
       id="use10527"
       transform="translate(20.748978,5.3517795)" />
    <use
       x="0"
       y="0"
       xlink:href="#path2313"
       id="use10529"
       transform="translate(20.488129,4.9219745)" />
    <use
       x="0"
       y="0"
       xlink:href="#path2313"
       id="use10531"
       transform="translate(20.208229,4.5169182)" />
    <use
       x="0"
       y="0"
       xlink:href="#path2313"
       id="use10533"
       transform="translate(19.872909,4.1611565)" />
    <use
       x="0"
       y="0"
       xlink:href="#path2313"
       id="use10535"
       transform="translate(19.509689,3.8189534)" />
    <use
       x="0"
       y="0"
       xlink:href="#path2313"
       id="use10537"
       transform="translate(19.116371,3.5193904)" />
    <use
       x="0"
       y="0"
       xlink:href="#path2313"
       id="use10539"
       transform="translate(18.692171,3.2648754)" />
    <use
       x="0"
       y="0"
       xlink:href="#path2313"
       id="use10541"
       transform="translate(18.247728,3.0672582)" />
    <use
       x="0"
       y="0"
       xlink:href="#path2313"
       id="use10543"
       transform="translate(17.774499,2.9193661)" />
    <use
       x="0"
       y="0"
       xlink:href="#path2313"
       id="use10545"
       transform="translate(17.283607,2.8225324)" />
    <use
       x="0"
       y="0"
       xlink:href="#path2313"
       id="use10547"
       transform="translate(16.842378,2.8028232)" />
    <use
       x="0"
       y="0"
       xlink:href="#path2313"
       id="use10549"
       transform="translate(16.348054,2.8201204)" />
    <use
       x="0"
       y="0"
       xlink:href="#path2313"
       id="use10861"
       transform="translate(15.844128,2.8530995)" />
    <use
       x="0"
       y="0"
       xlink:href="#path2313"
       id="use10863"
       transform="translate(15.382831,2.892494)" />
    <use
       x="0"
       y="0"
       xlink:href="#path2313"
       id="use10865"
       transform="translate(14.893803,2.9399476)" />
    <use
       x="0"
       y="0"
       xlink:href="#path2313"
       id="use10867"
       transform="translate(14.396692,3.0129319)" />
    <use
       x="0"
       y="0"
       xlink:href="#path2313"
       id="use10869"
       transform="translate(13.88253,3.0892543)" />
    <use
       x="0"
       y="0"
       xlink:href="#path2313"
       id="use11429"
       transform="translate(13.445182,3.1610882)" />
    <use
       x="0"
       y="0"
       xlink:href="#path2313"
       id="use11576"
       transform="translate(12.95286,3.2653405)" />
    <use
       x="0"
       y="0"
       xlink:href="#path2313"
       id="use11578"
       transform="translate(12.442062,3.3609706)" />
    <use
       x="0"
       y="0"
       xlink:href="#path2313"
       id="use11580"
       transform="translate(11.973828,3.475737)" />
    <use
       x="0"
       y="0"
       xlink:href="#path2313"
       id="use11582"
       transform="translate(11.464913,3.5927126)" />
    <use
       x="0"
       y="0"
       xlink:href="#path2313"
       id="use11733"
       transform="translate(11.001542,3.69996)" />
    <use
       x="0"
       y="0"
       xlink:href="#path2313"
       id="use11735"
       transform="translate(10.434583,3.8282062)" />
    <use
       x="0"
       y="0"
       xlink:href="#path2313"
       id="use11737"
       transform="translate(9.9333423,3.9296862)" />
    <use
       x="0"
       y="0"
       xlink:href="#path2313"
       id="use11739"
       transform="translate(9.4686262,4.0456517)" />
    <use
       x="0"
       y="0"
       xlink:href="#path2313"
       id="use11894"
       transform="translate(8.9658524,4.1674602)" />
    <use
       x="0"
       y="0"
       xlink:href="#path2313"
       id="use11896"
       transform="translate(8.4458524,4.3150085)" />
    <use
       x="0"
       y="0"
       xlink:href="#path2313"
       id="use11898"
       transform="translate(7.9458673,4.470202)" />
    <use
       x="0"
       y="0"
       xlink:href="#path2313"
       id="use11900"
       transform="translate(7.4923723,4.6720362)" />
    <use
       x="0"
       y="0"
       xlink:href="#path2313"
       id="use12059"
       transform="translate(7.0495053,4.9123639)" />
    <use
       x="0"
       y="0"
       xlink:href="#path2313"
       id="use12061"
       transform="translate(6.6088625,5.1131258)" />
    <use
       x="0"
       y="0"
       xlink:href="#path2313"
       id="use12063"
       transform="translate(6.1724378,5.4228252)" />
    <use
       x="0"
       y="0"
       xlink:href="#path2313"
       id="use12065"
       transform="translate(5.7968682,5.8305966)" />
    <use
       x="0"
       y="0"
       xlink:href="#path2313"
       id="use12228"
       transform="translate(5.4600061,6.2621147)" />
    <use
       x="0"
       y="0"
       xlink:href="#path2313"
       id="use12230"
       transform="translate(5.1060904,6.7523624)" />
    <use
       x="0"
       y="0"
       xlink:href="#path2313"
       id="use12232"
       transform="translate(4.8403924,7.2700669)" />
    <use
       x="0"
       y="0"
       xlink:href="#path2313"
       id="use12398"
       transform="translate(4.6038813,7.8360627)" />
    <use
       x="0"
       y="0"
       xlink:href="#path2313"
       id="use12400"
       transform="translate(4.4658653,8.3719568)" />
    <use
       x="0"
       y="0"
       xlink:href="#path2313"
       id="use12568"
       transform="translate(4.3734703,8.8964434)" />
    <use
       x="0"
       y="0"
       xlink:href="#path2313"
       id="use12904"
       transform="translate(4.3375283,9.4547662)" />
    <use
       x="0"
       y="0"
       xlink:href="#path2313"
       id="use12906"
       transform="translate(4.3238113,9.9979903)" />
    <use
       x="0"
       y="0"
       xlink:href="#path2313"
       id="use12908"
       transform="translate(4.3121913,10.565251)" />
    <use
       x="0"
       y="0"
       xlink:href="#path2313"
       id="use13250"
       transform="translate(4.3749763,11.123627)" />
    <use
       x="0"
       y="0"
       xlink:href="#path2313"
       id="use13252"
       transform="translate(4.4707713,11.68693)" />
    <use
       x="0"
       y="0"
       xlink:href="#path2313"
       id="use13254"
       transform="translate(4.6048533,12.249096)" />
    <use
       x="0"
       y="0"
       xlink:href="#path2313"
       id="use13256"
       transform="translate(4.8535054,12.818625)" />
    <use
       x="0"
       y="0"
       xlink:href="#path2313"
       id="use13432"
       transform="translate(5.2070404,13.356723)" />
    <use
       x="0"
       y="0"
       xlink:href="#path2313"
       id="use13434"
       transform="translate(5.5375851,13.839745)" />
    <use
       x="0"
       y="0"
       xlink:href="#path2313"
       id="use13436"
       transform="translate(5.7819282,14.352058)" />
    <use
       x="0"
       y="0"
       xlink:href="#path2313"
       id="use13438"
       transform="translate(6.0451348,14.931527)" />
    <use
       x="0"
       y="0"
       xlink:href="#path2313"
       id="use13440"
       transform="translate(6.1602808,15.539055)" />
    <use
       x="0"
       y="0"
       xlink:href="#path2313"
       id="use13442"
       transform="translate(6.2450908,16.843533)" />
    <use
       x="0"
       y="0"
       xlink:href="#path2313"
       id="use13444"
       transform="translate(6.2449778,17.495779)" />
    <use
       x="0"
       y="0"
       xlink:href="#path2313"
       id="use13446"
       transform="translate(6.2076138,18.134737)" />
    <use
       x="0"
       y="0"
       xlink:href="#path2313"
       id="use13448"
       transform="translate(6.1305618,18.750583)" />
    <use
       x="0"
       y="0"
       xlink:href="#path2313"
       id="use13450"
       transform="translate(6.0348888,19.398262)" />
    <use
       x="0"
       y="0"
       xlink:href="#path2313"
       id="use13452"
       transform="translate(5.8705652,20.226371)" />
    <use
       x="0"
       y="0"
       xlink:href="#path2313"
       id="use13454"
       transform="translate(5.5941531,21.005106)" />
    <use
       x="0"
       y="0"
       xlink:href="#path2313"
       id="use13456"
       transform="translate(5.2893674,21.699388)" />
    <use
       x="0"
       y="0"
       xlink:href="#path2313"
       id="use13602"
       transform="translate(6.2416248,16.224404)" />
    <use
       x="0"
       y="0"
       xlink:href="#path2313"
       id="use13732"
       transform="translate(4.9672554,22.280371)" />
    <use
       x="0"
       y="0"
       xlink:href="#path2313"
       id="use13880"
       transform="translate(4.4917653,22.740241)" />
    <use
       x="0"
       y="0"
       xlink:href="#path2313"
       id="use13882"
       transform="translate(4.017472,23.001415)" />
    <use
       x="0"
       y="0"
       xlink:href="#path2313"
       id="use2681-2"
       transform="matrix(-1,0,0,1,181.01482,17.837418)" />
    <use
       x="0"
       y="0"
       xlink:href="#path2313"
       id="use2705-6"
       transform="matrix(-1,0,0,1,180.68322,17.67216)" />
    <use
       x="0"
       y="0"
       xlink:href="#path2313"
       id="use2707-3"
       transform="matrix(-1,0,0,1,180.36875,17.460901)" />
    <use
       x="0"
       y="0"
       xlink:href="#path2313"
       id="use2739-0"
       transform="matrix(-1,0,0,1,180.20167,17.077257)" />
    <use
       x="0"
       y="0"
       xlink:href="#path2313"
       id="use2741-0"
       transform="matrix(-1,0,0,1,180.01195,16.595633)" />
    <use
       x="0"
       y="0"
       xlink:href="#path2313"
       id="use2743-2"
       transform="matrix(-1,0,0,1,179.833,16.108233)" />
    <use
       x="0"
       y="0"
       xlink:href="#path2313"
       id="use2745-5"
       transform="matrix(-1,0,0,1,179.5342,14.283575)" />
    <use
       x="0"
       y="0"
       xlink:href="#path2313"
       id="use2747-8"
       transform="matrix(-1,0,0,1,179.55004,13.656309)" />
    <use
       x="0"
       y="0"
       xlink:href="#path2313"
       id="use2749-9"
       transform="matrix(-1,0,0,1,179.56021,13.154067)" />
    <use
       x="0"
       y="0"
       xlink:href="#path2313"
       id="use2751-9"
       transform="matrix(-1,0,0,1,179.59766,12.681984)" />
    <use
       x="0"
       y="0"
       xlink:href="#path2313"
       id="use2753-8"
       transform="matrix(-1,0,0,1,179.64359,12.219058)" />
    <use
       x="0"
       y="0"
       xlink:href="#path2313"
       id="use3543-1"
       transform="matrix(-1,0,0,1,179.71746,11.737768)" />
    <use
       x="0"
       y="0"
       xlink:href="#path2313"
       id="use3545-6"
       transform="matrix(-1,0,0,1,179.77038,11.22888)" />
    <use
       x="0"
       y="0"
       xlink:href="#path2313"
       id="use3547-5"
       transform="matrix(-1,0,0,1,179.89091,10.736257)" />
    <use
       x="0"
       y="0"
       xlink:href="#path2313"
       id="use3549-9"
       transform="matrix(-1,0,0,1,180.05337,10.220006)" />
    <use
       x="0"
       y="0"
       xlink:href="#path2313"
       id="use3551-2"
       transform="matrix(-1,0,0,1,180.19485,9.7119363)" />
    <use
       x="0"
       y="0"
       xlink:href="#path2313"
       id="use3553-1"
       transform="matrix(-1,0,0,1,180.34517,9.2005918)" />
    <use
       x="0"
       y="0"
       xlink:href="#path2313"
       id="use3555-7"
       transform="matrix(-1,0,0,1,180.4639,8.704439)" />
    <use
       x="0"
       y="0"
       xlink:href="#path2313"
       id="use3557-0"
       transform="matrix(-1,0,0,1,180.55744,8.2088703)" />
    <use
       x="0"
       y="0"
       xlink:href="#path2313"
       id="use3961-9"
       transform="matrix(-1,0,0,1,180.61197,7.6958546)" />
    <use
       x="0"
       y="0"
       xlink:href="#path2313"
       id="use4366-6"
       transform="matrix(-1,0,0,1,180.6523,7.1845789)" />
    <use
       x="0"
       y="0"
       xlink:href="#path2313"
       id="use4368-6"
       transform="matrix(-1,0,0,1,180.66595,6.6830091)" />
    <use
       x="0"
       y="0"
       xlink:href="#path2313"
       id="use4370-6"
       transform="matrix(-1,0,0,1,180.66434,6.1799024)" />
    <use
       x="0"
       y="0"
       xlink:href="#path2313"
       id="use4372-7"
       transform="matrix(-1,0,0,1,180.63765,5.6733628)" />
    <use
       x="0"
       y="0"
       xlink:href="#path2313"
       id="use4781-8"
       transform="matrix(-1,0,0,1,180.54413,5.1720938)" />
    <use
       x="0"
       y="0"
       xlink:href="#path2313"
       id="use4783-4"
       transform="matrix(-1,0,0,1,180.3986,4.6921835)" />
    <use
       x="0"
       y="0"
       xlink:href="#path2313"
       id="use5194-5"
       transform="matrix(-1,0,0,1,180.16888,4.2360114)" />
    <use
       x="0"
       y="0"
       xlink:href="#path2313"
       id="use5196-9"
       transform="matrix(-1,0,0,1,179.90803,3.8062057)" />
    <use
       x="0"
       y="0"
       xlink:href="#path2313"
       id="use5609-7"
       transform="matrix(-1,0,0,1,179.62813,3.4011496)" />
    <use
       x="0"
       y="0"
       xlink:href="#path2313"
       id="use5611-5"
       transform="matrix(-1,0,0,1,179.29281,3.0453864)" />
    <use
       x="0"
       y="0"
       xlink:href="#path2313"
       id="use5613-1"
       transform="matrix(-1,0,0,1,178.92959,2.7031833)" />
    <use
       x="0"
       y="0"
       xlink:href="#path2313"
       id="use6029-8"
       transform="matrix(-1,0,0,1,178.53627,2.4036215)" />
    <use
       x="0"
       y="0"
       xlink:href="#path2313"
       id="use6031-4"
       transform="matrix(-1,0,0,1,178.11207,2.1491066)" />
    <use
       x="0"
       y="0"
       xlink:href="#path2313"
       id="use6033-5"
       transform="matrix(-1,0,0,1,177.66762,1.9267348)" />
    <use
       x="0"
       y="0"
       xlink:href="#path2313"
       id="use6452-6"
       transform="matrix(-1,0,0,1,177.18564,1.7845896)" />
    <use
       x="0"
       y="0"
       xlink:href="#path2313"
       id="use6454-7"
       transform="matrix(-1,0,0,1,176.69162,1.6170977)" />
    <use
       x="0"
       y="0"
       xlink:href="#path2313"
       id="use6456-3"
       transform="matrix(-1,0,0,1,176.16139,1.4907369)" />
    <use
       x="0"
       y="0"
       xlink:href="#path2313"
       id="use6458-5"
       transform="matrix(-1,0,0,1,175.64674,1.4079223)" />
    <use
       x="0"
       y="0"
       xlink:href="#path2313"
       id="use6460-4"
       transform="matrix(-1,0,0,1,175.12426,1.3582022)" />
    <use
       x="0"
       y="0"
       xlink:href="#path2313"
       id="use6462-1"
       transform="matrix(-1,0,0,1,174.64619,1.3260792)" />
    <use
       x="0"
       y="0"
       xlink:href="#path2313"
       id="use6887-3"
       transform="matrix(-1,0,0,1,174.13613,1.2862333)" />
    <use
       x="0"
       y="0"
       xlink:href="#path2313"
       id="use6889-9"
       transform="matrix(-1,0,0,1,173.6049,1.2634192)" />
    <use
       x="0"
       y="0"
       xlink:href="#path2313"
       id="use6891-6"
       transform="matrix(-1,0,0,1,172.94045,1.2534817)" />
    <use
       x="0"
       y="0"
       xlink:href="#path2313"
       id="use6893-0"
       transform="matrix(-1,0,0,1,172.28475,1.2322662)" />
    <use
       x="0"
       y="0"
       xlink:href="#path2313"
       id="use7863-5"
       transform="matrix(-1,0,0,1,179.69333,15.564095)" />
    <use
       x="0"
       y="0"
       xlink:href="#path2313"
       id="use7865-6"
       transform="matrix(-1,0,0,1,179.59703,14.91783)" />
    <use
       x="0"
       y="0"
       xlink:href="#path2313"
       id="use8425-5"
       transform="matrix(-1,0,0,1,181.39161,17.775575)" />
    <use
       x="0"
       y="0"
       xlink:href="#path2313"
       id="use8488-5"
       transform="matrix(-1,0,0,1,181.80116,17.530362)" />
    <use
       x="0"
       y="0"
       xlink:href="#path2313"
       id="use8490-0"
       transform="matrix(-1,0,0,1,182.12205,17.193541)" />
    <use
       x="0"
       y="0"
       xlink:href="#path2313"
       id="use8774-5"
       transform="matrix(-1,0,0,1,182.40031,16.790759)" />
    <use
       x="0"
       y="0"
       xlink:href="#path2313"
       id="use9342-8"
       transform="matrix(-1,0,0,1,182.55588,16.423211)" />
    <use
       x="0"
       y="0"
       xlink:href="#path2313"
       id="use9344-6"
       transform="matrix(-1,0,0,1,182.71144,15.992949)" />
    <use
       x="0"
       y="0"
       xlink:href="#path2313"
       id="use9904-5"
       transform="matrix(-1,0,0,1,182.80779,15.509128)" />
    <use
       x="0"
       y="0"
       xlink:href="#path2313"
       id="use9906-1"
       transform="matrix(-1,0,0,1,182.91456,15.041964)" />
    <use
       x="0"
       y="0"
       xlink:href="#path2313"
       id="use9908-5"
       transform="matrix(-1,0,0,1,182.99504,14.488104)" />
    <use
       x="0"
       y="0"
       xlink:href="#path2313"
       id="use9910-8"
       transform="matrix(-1,0,0,1,183.05918,13.876076)" />
    <use
       x="0"
       y="0"
       xlink:href="#path2313"
       id="use9912-6"
       transform="matrix(-1,0,0,1,183.06716,13.242774)" />
    <use
       x="0"
       y="0"
       xlink:href="#path2313"
       id="use9914-5"
       transform="matrix(-1,0,0,1,183.03179,12.622803)" />
    <use
       x="0"
       y="0"
       xlink:href="#path2313"
       id="use9916-9"
       transform="matrix(-1,0,0,1,182.95218,12.001556)" />
    <use
       x="0"
       y="0"
       xlink:href="#path2313"
       id="use9918-1"
       transform="matrix(-1,0,0,1,182.83649,11.344987)" />
    <use
       x="0"
       y="0"
       xlink:href="#path2313"
       id="use10207-4"
       transform="matrix(-1,0,0,1,182.67163,10.825224)" />
    <use
       x="0"
       y="0"
       xlink:href="#path2313"
       id="use10209-2"
       transform="matrix(-1,0,0,1,182.5213,10.313879)" />
    <use
       x="0"
       y="0"
       xlink:href="#path2313"
       id="use10211-7"
       transform="matrix(-1,0,0,1,182.40258,9.8177263)" />
    <use
       x="0"
       y="0"
       xlink:href="#path2313"
       id="use10213-1"
       transform="matrix(-1,0,0,1,182.28736,9.3126778)" />
    <use
       x="0"
       y="0"
       xlink:href="#path2313"
       id="use10215-7"
       transform="matrix(-1,0,0,1,182.2545,8.809141)" />
    <use
       x="0"
       y="0"
       xlink:href="#path2313"
       id="use10217-2"
       transform="matrix(-1,0,0,1,182.21419,8.2978653)" />
    <use
       x="0"
       y="0"
       xlink:href="#path2313"
       id="use10219-7"
       transform="matrix(-1,0,0,1,182.20052,7.7962967)" />
    <use
       x="0"
       y="0"
       xlink:href="#path2313"
       id="use10221-4"
       transform="matrix(-1,0,0,1,182.20213,7.2931889)" />
    <use
       x="0"
       y="0"
       xlink:href="#path2313"
       id="use10223-0"
       transform="matrix(-1,0,0,1,182.22882,6.7866502)" />
    <use
       x="0"
       y="0"
       xlink:href="#path2313"
       id="use10225-4"
       transform="matrix(-1,0,0,1,182.32236,6.2853815)" />
    <use
       x="0"
       y="0"
       xlink:href="#path2313"
       id="use10227-1"
       transform="matrix(-1,0,0,1,182.46787,5.8054714)" />
    <use
       x="0"
       y="0"
       xlink:href="#path2313"
       id="use10527-7"
       transform="matrix(-1,0,0,1,182.6976,5.3492997)" />
    <use
       x="0"
       y="0"
       xlink:href="#path2313"
       id="use10529-2"
       transform="matrix(-1,0,0,1,182.95845,4.9194947)" />
    <use
       x="0"
       y="0"
       xlink:href="#path2313"
       id="use10531-6"
       transform="matrix(-1,0,0,1,183.23835,4.5144384)" />
    <use
       x="0"
       y="0"
       xlink:href="#path2313"
       id="use10533-3"
       transform="matrix(-1,0,0,1,183.57367,4.1586768)" />
    <use
       x="0"
       y="0"
       xlink:href="#path2313"
       id="use10535-7"
       transform="matrix(-1,0,0,1,183.93689,3.8164737)" />
    <use
       x="0"
       y="0"
       xlink:href="#path2313"
       id="use10537-3"
       transform="matrix(-1,0,0,1,184.33021,3.5169106)" />
    <use
       x="0"
       y="0"
       xlink:href="#path2313"
       id="use10539-9"
       transform="matrix(-1,0,0,1,184.75441,3.2623956)" />
    <use
       x="0"
       y="0"
       xlink:href="#path2313"
       id="use10541-7"
       transform="matrix(-1,0,0,1,185.19885,3.0647784)" />
    <use
       x="0"
       y="0"
       xlink:href="#path2313"
       id="use10543-7"
       transform="matrix(-1,0,0,1,185.67208,2.9168863)" />
    <use
       x="0"
       y="0"
       xlink:href="#path2313"
       id="use10545-4"
       transform="matrix(-1,0,0,1,186.16297,2.8200526)" />
    <use
       x="0"
       y="0"
       xlink:href="#path2313"
       id="use10547-5"
       transform="matrix(-1,0,0,1,186.6042,2.8003434)" />
    <use
       x="0"
       y="0"
       xlink:href="#path2313"
       id="use10549-0"
       transform="matrix(-1,0,0,1,187.09852,2.8176406)" />
    <use
       x="0"
       y="0"
       xlink:href="#path2313"
       id="use10861-3"
       transform="matrix(-1,0,0,1,187.60245,2.8506197)" />
    <use
       x="0"
       y="0"
       xlink:href="#path2313"
       id="use10863-9"
       transform="matrix(-1,0,0,1,188.06375,2.8900142)" />
    <use
       x="0"
       y="0"
       xlink:href="#path2313"
       id="use10865-9"
       transform="matrix(-1,0,0,1,188.55278,2.9374678)" />
    <use
       x="0"
       y="0"
       xlink:href="#path2313"
       id="use10867-3"
       transform="matrix(-1,0,0,1,189.04989,3.0104521)" />
    <use
       x="0"
       y="0"
       xlink:href="#path2313"
       id="use10869-8"
       transform="matrix(-1,0,0,1,189.56405,3.0867745)" />
    <use
       x="0"
       y="0"
       xlink:href="#path2313"
       id="use11429-0"
       transform="matrix(-1,0,0,1,190.0014,3.1586084)" />
    <use
       x="0"
       y="0"
       xlink:href="#path2313"
       id="use11576-4"
       transform="matrix(-1,0,0,1,190.49372,3.2628607)" />
    <use
       x="0"
       y="0"
       xlink:href="#path2313"
       id="use11578-6"
       transform="matrix(-1,0,0,1,191.00451,3.3584907)" />
    <use
       x="0"
       y="0"
       xlink:href="#path2313"
       id="use11580-8"
       transform="matrix(-1,0,0,1,191.47275,3.4732572)" />
    <use
       x="0"
       y="0"
       xlink:href="#path2313"
       id="use11582-1"
       transform="matrix(-1,0,0,1,191.98166,3.5902328)" />
    <use
       x="0"
       y="0"
       xlink:href="#path2313"
       id="use11733-3"
       transform="matrix(-1,0,0,1,192.44503,3.6974802)" />
    <use
       x="0"
       y="0"
       xlink:href="#path2313"
       id="use11735-9"
       transform="matrix(-1,0,0,1,193.01199,3.8257264)" />
    <use
       x="0"
       y="0"
       xlink:href="#path2313"
       id="use11737-8"
       transform="matrix(-1,0,0,1,193.51323,3.9272064)" />
    <use
       x="0"
       y="0"
       xlink:href="#path2313"
       id="use11739-5"
       transform="matrix(-1,0,0,1,193.97795,4.0431719)" />
    <use
       x="0"
       y="0"
       xlink:href="#path2313"
       id="use11894-0"
       transform="matrix(-1,0,0,1,194.48072,4.1649804)" />
    <use
       x="0"
       y="0"
       xlink:href="#path2313"
       id="use11896-8"
       transform="matrix(-1,0,0,1,195.00072,4.3125287)" />
    <use
       x="0"
       y="0"
       xlink:href="#path2313"
       id="use11898-7"
       transform="matrix(-1,0,0,1,195.50071,4.4677222)" />
    <use
       x="0"
       y="0"
       xlink:href="#path2313"
       id="use11900-0"
       transform="matrix(-1,0,0,1,195.9542,4.6695564)" />
    <use
       x="0"
       y="0"
       xlink:href="#path2313"
       id="use12059-6"
       transform="matrix(-1,0,0,1,196.39707,4.9098841)" />
    <use
       x="0"
       y="0"
       xlink:href="#path2313"
       id="use12061-2"
       transform="matrix(-1,0,0,1,196.83771,5.110646)" />
    <use
       x="0"
       y="0"
       xlink:href="#path2313"
       id="use12063-3"
       transform="matrix(-1,0,0,1,197.27414,5.4203454)" />
    <use
       x="0"
       y="0"
       xlink:href="#path2313"
       id="use12065-4"
       transform="matrix(-1,0,0,1,197.64971,5.8281168)" />
    <use
       x="0"
       y="0"
       xlink:href="#path2313"
       id="use12228-6"
       transform="matrix(-1,0,0,1,197.98657,6.2596349)" />
    <use
       x="0"
       y="0"
       xlink:href="#path2313"
       id="use12230-4"
       transform="matrix(-1,0,0,1,198.34049,6.7498826)" />
    <use
       x="0"
       y="0"
       xlink:href="#path2313"
       id="use12232-1"
       transform="matrix(-1,0,0,1,198.60618,7.2675871)" />
    <use
       x="0"
       y="0"
       xlink:href="#path2313"
       id="use12398-0"
       transform="matrix(-1,0,0,1,198.84269,7.8335829)" />
    <use
       x="0"
       y="0"
       xlink:href="#path2313"
       id="use12400-5"
       transform="matrix(-1,0,0,1,198.98071,8.369477)" />
    <use
       x="0"
       y="0"
       xlink:href="#path2313"
       id="use12568-6"
       transform="matrix(-1,0,0,1,199.07311,8.8939636)" />
    <use
       x="0"
       y="0"
       xlink:href="#path2313"
       id="use12904-1"
       transform="matrix(-1,0,0,1,199.10905,9.4522864)" />
    <use
       x="0"
       y="0"
       xlink:href="#path2313"
       id="use12906-6"
       transform="matrix(-1,0,0,1,199.12276,9.9955103)" />
    <use
       x="0"
       y="0"
       xlink:href="#path2313"
       id="use12908-9"
       transform="matrix(-1,0,0,1,199.13438,10.562772)" />
    <use
       x="0"
       y="0"
       xlink:href="#path2313"
       id="use13250-8"
       transform="matrix(-1,0,0,1,199.0716,11.121148)" />
    <use
       x="0"
       y="0"
       xlink:href="#path2313"
       id="use13252-5"
       transform="matrix(-1,0,0,1,198.9758,11.68445)" />
    <use
       x="0"
       y="0"
       xlink:href="#path2313"
       id="use13254-9"
       transform="matrix(-1,0,0,1,198.84172,12.246617)" />
    <use
       x="0"
       y="0"
       xlink:href="#path2313"
       id="use13256-6"
       transform="matrix(-1,0,0,1,198.59307,12.816146)" />
    <use
       x="0"
       y="0"
       xlink:href="#path2313"
       id="use13432-4"
       transform="matrix(-1,0,0,1,198.23954,13.354243)" />
    <use
       x="0"
       y="0"
       xlink:href="#path2313"
       id="use13434-6"
       transform="matrix(-1,0,0,1,197.90899,13.837266)" />
    <use
       x="0"
       y="0"
       xlink:href="#path2313"
       id="use13436-2"
       transform="matrix(-1,0,0,1,197.66465,14.349579)" />
    <use
       x="0"
       y="0"
       xlink:href="#path2313"
       id="use13438-1"
       transform="matrix(-1,0,0,1,197.40144,14.929048)" />
    <use
       x="0"
       y="0"
       xlink:href="#path2313"
       id="use13440-8"
       transform="matrix(-1,0,0,1,197.28629,15.536576)" />
    <use
       x="0"
       y="0"
       xlink:href="#path2313"
       id="use13442-5"
       transform="matrix(-1,0,0,1,197.20148,16.841054)" />
    <use
       x="0"
       y="0"
       xlink:href="#path2313"
       id="use13444-7"
       transform="matrix(-1,0,0,1,197.2016,17.4933)" />
    <use
       x="0"
       y="0"
       xlink:href="#path2313"
       id="use13446-3"
       transform="matrix(-1,0,0,1,197.23896,18.132258)" />
    <use
       x="0"
       y="0"
       xlink:href="#path2313"
       id="use13448-7"
       transform="matrix(-1,0,0,1,197.31601,18.748104)" />
    <use
       x="0"
       y="0"
       xlink:href="#path2313"
       id="use13450-7"
       transform="matrix(-1,0,0,1,197.41169,19.395783)" />
    <use
       x="0"
       y="0"
       xlink:href="#path2313"
       id="use13452-8"
       transform="matrix(-1,0,0,1,197.57601,20.223892)" />
    <use
       x="0"
       y="0"
       xlink:href="#path2313"
       id="use13454-3"
       transform="matrix(-1,0,0,1,197.85242,21.002627)" />
    <use
       x="0"
       y="0"
       xlink:href="#path2313"
       id="use13456-6"
       transform="matrix(-1,0,0,1,198.15721,21.696909)" />
    <use
       x="0"
       y="0"
       xlink:href="#path2313"
       id="use13602-2"
       transform="matrix(-1,0,0,1,197.20495,16.221925)" />
    <use
       x="0"
       y="0"
       xlink:href="#path2313"
       id="use13732-5"
       transform="matrix(-1,0,0,1,198.47932,22.277892)" />
    <use
       x="0"
       y="0"
       xlink:href="#path2313"
       id="use13880-4"
       transform="matrix(-1,0,0,1,198.94604,22.728992)" />
    <use
       x="0"
       y="0"
       xlink:href="#path2313"
       id="use13882-4"
       transform="matrix(-1,0,0,1,199.41156,22.993089)" />
    <rect
       style="fill:none;fill-rule:evenodd;stroke:#ff0000;stroke-width:0.0822881;stroke-dasharray:none;paint-order:fill markers stroke"
       id="rect22917"
       width="1.6261142"
       height="1.308589"
       x="69.374435"
       y="0.69131184" />
  </g>
</svg>
